<?xml version="1.0" encoding="UTF-8" standalone="no"?>
<svg
   version="1.1"
   id="Layer_1"
   x="0px"
   y="0px"
   viewBox="0 0 2560 1470"
   enable-background="new 0 0 2560 1600"
   xml:space="preserve"
   width="2560"
   height="1470"
   xmlns:xlink="http://www.w3.org/1999/xlink"
   xmlns="http://www.w3.org/2000/svg"
   xmlns:svg="http://www.w3.org/2000/svg"><defs
   id="defs81"><pattern
     xlink:href="#New_Pattern_2"
     id="pattern2981" /><pattern
     xlink:href="#New_Pattern"
     id="pattern2979" /></defs>
<pattern
   width="193"
   height="193"
   patternUnits="userSpaceOnUse"
   id="New_Pattern"
   viewBox="32.9999 -226 193 193"
   overflow="visible">
	<g
   id="g20">
		<polygon
   fill="none"
   points="32.9999,-226 225.9999,-226 225.9999,-33 32.9999,-33   "
   id="polygon2" />
		<g
   id="g6">
			<polygon
   fill="none"
   stroke="#FFFFFF"
   stroke-width="9"
   stroke-miterlimit="10"
   points="254.1352,-101.1824 197.5,-101.1824      197.5,-157.8176 254.1352,-157.8176    "
   id="polygon4" />
		</g>
		<g
   id="g14">
			<polygon
   fill="none"
   stroke="#FFFFFF"
   stroke-width="9"
   stroke-miterlimit="10"
   points="101.1824,-61.1352 61.1352,-101.1824      61.1352,-157.8176 101.1824,-197.8648 157.8176,-197.8648 197.8648,-157.8176 197.8648,-101.1824 157.8176,-61.1352    "
   id="polygon8" />
			<polygon
   fill="none"
   stroke="#FFFFFF"
   stroke-width="9"
   stroke-miterlimit="10"
   points="157.8176,-4.5 101.1824,-4.5      101.1824,-61.1352 157.8176,-61.1352    "
   id="polygon10" />
			<polygon
   fill="none"
   stroke="#FFFFFF"
   stroke-width="9"
   stroke-miterlimit="10"
   points="61.1352,-101.1824 4.5,-101.1824      4.5,-157.8176 61.1352,-157.8176    "
   id="polygon12" />
		</g>
		<g
   id="g18">
			<polygon
   fill="none"
   stroke="#FFFFFF"
   stroke-width="9"
   stroke-miterlimit="10"
   points="157.8176,-197.5 101.1824,-197.5      101.1824,-254.1352 157.8176,-254.1352    "
   id="polygon16" />
		</g>
	</g>
</pattern>
<pattern
   width="193"
   height="193"
   patternUnits="userSpaceOnUse"
   id="New_Pattern_2"
   viewBox="61.1347 -334.0474 193 193"
   overflow="visible">
	<g
   id="g71">
		<polygon
   fill="none"
   points="61.1347,-334.0474 254.1347,-334.0474 254.1347,-141.0474 61.1347,-141.0474   "
   id="polygon23" />
		<g
   id="g29">
			<g
   id="g27">
				<polygon
   fill="none"
   stroke="#000000"
   stroke-width="9"
   stroke-miterlimit="10"
   points="294.1819,-4.5002 254.1348,-44.5474       254.1348,-101.1826 294.1819,-141.2298 350.8172,-141.2298 390.8643,-101.1826 390.8643,-44.5474 350.8172,-4.5002     "
   id="polygon25" />
			</g>
		</g>
		<g
   id="g37">
			<g
   id="g33">
				<polygon
   fill="none"
   stroke="#000000"
   stroke-width="9"
   stroke-miterlimit="10"
   points="101.1819,-4.5002 61.1348,-44.5474       61.1348,-101.1826 101.1819,-141.2298 157.8172,-141.2298 197.8643,-101.1826 197.8643,-44.5474 157.8172,-4.5002     "
   id="polygon31" />
			</g>
			
				<line
   fill="none"
   stroke="#000000"
   stroke-width="9"
   stroke-miterlimit="10"
   x1="157.8172"
   y1="-140.865"
   x2="101.1819"
   y2="-140.865"
   id="line35" />
		</g>
		<g
   id="g45">
			<g
   id="g43">
				<polygon
   fill="none"
   stroke="#000000"
   stroke-width="9"
   stroke-miterlimit="10"
   points="294.1819,-197.5002 254.1348,-237.5474       254.1348,-294.1826 294.1819,-334.2298 350.8172,-334.2298 390.8643,-294.1826 390.8643,-237.5474 350.8172,-197.5002     "
   id="polygon39" />
				
					<line
   fill="none"
   stroke="#000000"
   stroke-width="9"
   stroke-miterlimit="10"
   x1="254.1348"
   y1="-294.1826"
   x2="254.1348"
   y2="-237.5474"
   id="line41" />
			</g>
		</g>
		<g
   id="g59">
			<polygon
   fill="none"
   stroke="#000000"
   stroke-width="9"
   stroke-miterlimit="10"
   points="254.1348,-237.5474 197.4995,-237.5474      197.4995,-294.1826 254.1348,-294.1826    "
   id="polygon47" />
			<g
   id="g55">
				<polygon
   fill="none"
   stroke="#000000"
   stroke-width="9"
   stroke-miterlimit="10"
   points="101.1819,-197.5002 61.1348,-237.5474       61.1348,-294.1826 101.1819,-334.2298 157.8172,-334.2298 197.8643,-294.1826 197.8643,-237.5474 157.8172,-197.5002     "
   id="polygon49" />
				<polygon
   fill="none"
   stroke="#000000"
   stroke-width="9"
   stroke-miterlimit="10"
   points="157.8172,-140.865 101.1819,-140.865       101.1819,-197.5002 157.8172,-197.5002     "
   id="polygon51" />
				
					<line
   fill="none"
   stroke="#000000"
   stroke-width="9"
   stroke-miterlimit="10"
   x1="61.1348"
   y1="-294.1826"
   x2="61.1348"
   y2="-237.5474"
   id="line53" />
			</g>
			
				<line
   fill="none"
   stroke="#000000"
   stroke-width="9"
   stroke-miterlimit="10"
   x1="157.8172"
   y1="-333.865"
   x2="101.1819"
   y2="-333.865"
   id="line57" />
		</g>
		<g
   id="g63">
			<polygon
   fill="none"
   stroke="#000000"
   stroke-width="9"
   stroke-miterlimit="10"
   points="61.1348,-237.5474 4.4995,-237.5474      4.4995,-294.1826 61.1348,-294.1826    "
   id="polygon61" />
		</g>
		<g
   id="g69">
			<g
   id="g67">
				<polygon
   fill="none"
   stroke="#000000"
   stroke-width="9"
   stroke-miterlimit="10"
   points="157.8172,-333.865 101.1819,-333.865       101.1819,-390.5002 157.8172,-390.5002     "
   id="polygon65" />
			</g>
		</g>
	</g>
</pattern>
<rect
   fill="url(#New_Pattern)"
   width="2560"
   height="1600"
   id="rect74"
   x="0"
   y="0"
   style="fill:url(#pattern2979)" />
<rect
   fill="url(#New_Pattern_2)"
   width="2560"
   height="1470"
   id="rect76"
   style="fill:url(#pattern2981);fill-opacity:1;opacity:0.03"
   x="0"
   y="0" />
</svg>
